<?xml version="1.0" encoding="UTF-8" standalone="no"?>
<svg
   xmlns:dc="http://purl.org/dc/elements/1.1/"
   xmlns:cc="http://creativecommons.org/ns#"
   xmlns:rdf="http://www.w3.org/1999/02/22-rdf-syntax-ns#"
   xmlns:svg="http://www.w3.org/2000/svg"
   xmlns="http://www.w3.org/2000/svg"
   xmlns:xlink="http://www.w3.org/1999/xlink"
   viewBox="0 0 683.75 605"
   height="605"
   width="683.75"
   version="1.1"
   id="svg3390">
  <metadata
     id="metadata3396">
    <rdf:RDF>
      <cc:Work
         rdf:about="">
        <dc:format>image/svg+xml</dc:format>
        <dc:type
           rdf:resource="http://purl.org/dc/dcmitype/StillImage" />
        <dc:title></dc:title>
      </cc:Work>
    </rdf:RDF>
  </metadata>
  <defs
     id="defs3394" />
  <path
   id="path3400"
   d="m 22.5,572.81678 c -0.96375,-11.19966 17.846031,-2.69899 25.41003,-5.40247 20.384157,-0.0756 40.768313,-0.15121 61.15247,-0.22681 0,-178.125 0,-356.25 0,-534.375 C 80.208333,32.705482 51.354167,32.598463 22.5,32.491443 17.996774,18.238019 31.582359,22.073407 41.134151,21.875 c 52.239143,0 104.478289,0 156.717429,0 48.4502,140.16399 95.79193,280.72388 145.36888,420.48892 C 393.02674,302.79264 440.11112,162.23341 488.60269,22.1875 546.15179,22.081866 603.7009,21.976232 661.25,21.870599 665.75389,36.129011 652.17784,32.307477 642.61585,32.5 c -22.74695,0 -45.4939,0 -68.24085,0 0,178.33333 0,356.66667 0,535 28.95833,0 57.91667,0 86.875,0 4.50367,14.25672 -9.07562,10.43048 -18.63415,10.625 -77.53862,0 -155.07723,0 -232.61585,0 -4.50319,-14.23672 9.0823,-10.45172 18.63402,-10.68555 22.64283,-0.084 45.28565,-0.16797 67.92848,-0.25195 -0.0919,-174.68478 0.69102,-349.37434 -0.18074,-524.055404 -3.94538,-7.872859 -12.4499,31.036525 -17.79406,41.572433 C 421.46577,248.86536 365.36148,413.37932 308.1248,577.5 246.35506,401.20818 185.56992,224.57227 124.10006,48.175562 117.47184,38.642322 122.6588,78.974768 120.80439,88.271529 120.49097,248.01411 120.67426,407.75719 120.625,567.5 c 28.75,0 57.5,0 86.25,0 4.50367,14.25672 -9.07562,10.43048 -18.63415,10.625 -55.24695,0 -110.4939,0 -165.74085,0 0,-1.76941 0,-3.53881 0,-5.30822 z"
   style="fill:#000000" />
</svg>
